<svg width="0" height="0" class="hidden">
  <symbol viewBox="0 0 128 128" id="bootstrap">
    <path d="M27.235 13.885c-7.177 0-12.486 6.284-12.249 13.099.228 6.546-.068 15.026-2.203 21.94-2.14 6.936-5.76 11.319-11.673 11.883v6.387c5.913.563 9.533 4.947 11.673 11.883 2.135 6.914 2.43 15.394 2.203 21.94-.238 6.815 5.072 13.098 12.249 13.098h73.54c7.177 0 12.486-6.284 12.249-13.098-.228-6.546.068-15.026 2.202-21.94 2.14-6.935 5.751-11.319 11.664-11.883v-6.387c-5.913-.563-9.523-4.947-11.664-11.883-2.134-6.914-2.43-15.394-2.202-21.94.237-6.815-5.072-13.099-12.25-13.099zm58.114 61.686c0 9.384-7.002 15.073-18.621 15.073H45.306a.491.491 0 01-.491-.491V37.827a.491.491 0 01.491-.492h21.309c9.689 0 16.047 5.246 16.047 13.3 0 5.653-4.277 10.713-9.727 11.6v.296c7.418.813 12.414 5.948 12.414 13.04zM64.571 44.096H53.293v15.922h9.5c7.342 0 11.391-2.955 11.391-8.238 0-4.95-3.481-7.684-9.613-7.684zm-11.278 22.24v17.548h11.695c7.645 0 11.695-3.066 11.695-8.83 0-5.763-4.163-8.718-12.187-8.718z" fill=""></path>
  </symbol>
  <symbol viewBox="0 0 128 128" id="c">
    <path d="M116.5 32.3c-.6-1.1-1.4-2.1-2.3-2.6L66.1 1.9c-.8-.5-1.9-.7-3.1-.7-1.2 0-2.3.3-3.1.7L11.4 29.7c-1.7 1-3.4 3.5-3.4 5.4v55.7c0 1.1.7 2.3 1.4 3.4l.1.1c.5.8 1.3 1.5 2 1.9l48.3 27.9c.8.5 2 .7 3.2.7 1.2 0 2.3-.3 3.1-.7l47.5-27.9c1.7-1 2.4-3.5 2.4-5.4V35.1c0-.8.4-1.8 0-2.6l.5-.2zm-4.2 2.1c0 .3-.3.5-.3.7v55.7c0 .8-.2 1.7-.4 2L64 120.6c-.1.1-.5.2-1.1.2-.6 0-1-.1-1.1-.2L13.6 92.8s-.1-.1-.2-.1l-.6-.6c-.4-.7.2-1.1-.8-1.2V35.2c1-.5.9-1.7 1.4-1.9L61.7 5.4c.1 0 .6-.2 1.2-.2s1 .1 1.1.2l48 27.7.4.9c.1.1-.1.3-.1.4zM63 38.5c9.1 0 17.1 5 21.3 12.5l13-7.5c-6.8-11.9-19.6-20-34.3-20-21.8 0-39.5 17.7-39.5 39.5s17.7 39.5 39.5 39.5c14.6 0 27.4-8 34.2-19.8l-12.9-7.6C80.1 82.5 72.1 87.5 63 87.5c-13.5 0-24.5-11-24.5-24.5s11-24.5 24.5-24.5z" fill="#03599C"></path>
  </symbol>
  <symbol viewBox="0 0 128 128" id="css">
    <path fill="#1572B6" d="M8.76 1l10.055 112.883 45.118 12.58 45.244-12.626L119.24 1H8.76zm89.591 25.862l-3.347 37.605.01.203-.014.467v-.004l-2.378 26.294-.262 2.336L64 101.607v.001l-.022.019-28.311-7.888L33.75 72h13.883l.985 11.054 15.386 4.17-.004.008v-.002l15.443-4.229L81.075 65H48.792l-.277-3.043-.631-7.129L47.553 51h34.749l1.264-14H30.64l-.277-3.041-.63-7.131L29.401 23h69.281l-.331 3.862z"></path>
  </symbol>
  <symbol viewBox="0 0 128 128" id="express">
    <path d="M126.67 98.44c-4.56 1.16-7.38.05-9.91-3.75-5.68-8.51-11.95-16.63-18-24.9-.78-1.07-1.59-2.12-2.6-3.45C89 76 81.85 85.2 75.14 94.77c-2.4 3.42-4.92 4.91-9.4 3.7l26.92-36.13L67.6 29.71c4.31-.84 7.29-.41 9.93 3.45 5.83 8.52 12.26 16.63 18.67 25.21 6.45-8.55 12.8-16.67 18.8-25.11 2.41-3.42 5-4.72 9.33-3.46-3.28 4.35-6.49 8.63-9.72 12.88-4.36 5.73-8.64 11.53-13.16 17.14-1.61 2-1.35 3.3.09 5.19C109.9 76 118.16 87.1 126.67 98.44zM1.33 61.74c.72-3.61 1.2-7.29 2.2-10.83 6-21.43 30.6-30.34 47.5-17.06C60.93 41.64 63.39 52.62 62.9 65H7.1c-.84 22.21 15.15 35.62 35.53 28.78 7.15-2.4 11.36-8 13.47-15 1.07-3.51 2.84-4.06 6.14-3.06-1.69 8.76-5.52 16.08-13.52 20.66-12 6.86-29.13 4.64-38.14-4.89C5.26 85.89 3 78.92 2 71.39c-.15-1.2-.46-2.38-.7-3.57q.03-3.04.03-6.08zm5.87-1.49h50.43c-.33-16.06-10.33-27.47-24-27.57-15-.12-25.78 11.02-26.43 27.57z"></path>
  </symbol>
  <symbol viewBox="0 0 128 128" id="graphql">
    <g fill="#E434AA">
      <path d="M18.39 96.852l-4.6-2.657L65.04 5.434l4.597 2.656zm0 0"></path>
      <path d="M12.734 87.105H115.23v5.31H12.734zm0 0"></path>
      <path d="M66.031 119.688L14.766 90.09l2.656-4.602 51.266 29.602zm0 0M110.566 42.543L59.301 12.941l2.656-4.597 51.266 29.597zm0 0"></path>
      <path d="M17.434 42.523l-2.657-4.601 51.27-29.598 2.656 4.598zm0 0"></path>
      <path d="M109.621 96.852L58.375 8.09l4.598-2.656 51.25 88.761zm0 0M16.8 34.398h5.313v59.204h-5.312zm0 0"></path>
      <path d="M105.887 34.398h5.312v59.204h-5.312zm0 0"></path>
      <path d="M65.129 117.441l-2.32-4.02 44.586-25.745 2.32 4.02zm0 0"></path>
      <path d="M118.238 95.328c-3.07 5.344-9.918 7.168-15.261 4.098-5.344-3.074-7.168-9.922-4.098-15.266 3.074-5.344 9.922-7.168 15.266-4.097 5.375 3.105 7.199 9.921 4.093 15.265M29.09 43.84c-3.074 5.344-9.922 7.168-15.266 4.097-5.344-3.074-7.168-9.921-4.097-15.265 3.074-5.344 9.921-7.168 15.265-4.098 5.344 3.106 7.168 9.922 4.098 15.266M9.762 95.328c-3.075-5.344-1.25-12.16 4.093-15.266 5.344-3.07 12.16-1.246 15.266 4.098 3.07 5.344 1.246 12.16-4.098 15.266-5.375 3.07-12.191 1.246-15.261-4.098M98.91 43.84c-3.07-5.344-1.246-12.16 4.098-15.266 5.344-3.07 12.16-1.246 15.265 4.098 3.07 5.344 1.247 12.16-4.097 15.266-5.344 3.07-12.192 1.246-15.266-4.098M64 126.656a11.158 11.158 0 01-11.168-11.168A11.158 11.158 0 0164 104.32a11.158 11.158 0 0111.168 11.168c0 6.145-4.992 11.168-11.168 11.168M64 23.68a11.158 11.158 0 01-11.168-11.168A11.158 11.158 0 0164 1.344a11.158 11.158 0 0111.168 11.168A11.158 11.158 0 0164 23.68"></path>
    </g>
  </symbol>
  <symbol viewBox="0 0 128 128" id="handlebars">
    <path d="M49.444 48.231a18.439 18.439 0 0 0-3.037.03c-12.692 1.004-17.732 7.57-20.826 10.336-3.093 2.766-8.82 9.393-12.672 8.195-3.852-1.199-4.926-5.838-3.564-7.313 1.363-1.475 2.428-1.209 3.257 0a6.392 6.392 0 0 1 .789 3.185 7.314 7.314 0 0 0 2.367-3.565c.47-2.049.368-4.035-2.367-5.428-6.935-3.503-11.412 2.745-12.109 4.21C.586 59.345-.5 61.65.258 66.936c.758 5.286 3.268 10.142 11.268 12.016a33.691 33.691 0 0 0 22.536-2.633c7.007-3.34 20.182-9.22 23.5-9.813a28.836 28.836 0 0 1 6.443-.817 28.836 28.836 0 0 1 6.442.817c3.32.594 16.494 6.474 23.5 9.813a33.691 33.691 0 0 0 22.527 2.633c8-1.874 10.51-6.73 11.268-12.016.758-5.286-.328-7.58-1.024-9.055-.697-1.476-5.174-7.724-12.099-4.21-2.735 1.393-2.838 3.38-2.367 5.428a7.314 7.314 0 0 0 2.367 3.565 6.392 6.392 0 0 1 .799-3.247c.83-1.209 1.894-1.465 3.257 0 1.362 1.465.288 6.166-3.564 7.365-3.851 1.198-9.579-5.43-12.672-8.195-3.094-2.766-8.144-9.302-20.836-10.326a18.439 18.439 0 0 0-17.598 9.07 18.439 18.439 0 0 0-14.561-9.1Z"></path>
  </symbol>
  <symbol viewBox="0 0 128 128" id="html">
    <path fill="#E44D26" d="M19.037 113.876L9.032 1.661h109.936l-10.016 112.198-45.019 12.48z"></path>
    <path fill="#F16529" d="M64 116.8l36.378-10.086 8.559-95.878H64z"></path>
    <path fill="#EBEBEB" d="M64 52.455H45.788L44.53 38.361H64V24.599H29.489l.33 3.692 3.382 37.927H64zm0 35.743l-.061.017-15.327-4.14-.979-10.975H33.816l1.928 21.609 28.193 7.826.063-.017z"></path>
    <path fill="#fff" d="M63.952 52.455v13.763h16.947l-1.597 17.849-15.35 4.143v14.319l28.215-7.82.207-2.325 3.234-36.233.335-3.696h-3.708zm0-27.856v13.762h33.244l.276-3.092.628-6.978.329-3.692z"></path>
  </symbol>
  <symbol viewBox="0 0 128 128" id="js">
    <path fill="#F0DB4F" d="M1.408 1.408h125.184v125.185H1.408z"></path>
    <path fill="#323330" d="M116.347 96.736c-.917-5.711-4.641-10.508-15.672-14.981-3.832-1.761-8.104-3.022-9.377-5.926-.452-1.69-.512-2.642-.226-3.665.821-3.32 4.784-4.355 7.925-3.403 2.023.678 3.938 2.237 5.093 4.724 5.402-3.498 5.391-3.475 9.163-5.879-1.381-2.141-2.118-3.129-3.022-4.045-3.249-3.629-7.676-5.498-14.756-5.355l-3.688.477c-3.534.893-6.902 2.748-8.877 5.235-5.926 6.724-4.236 18.492 2.975 23.335 7.104 5.332 17.54 6.545 18.873 11.531 1.297 6.104-4.486 8.08-10.234 7.378-4.236-.881-6.592-3.034-9.139-6.949-4.688 2.713-4.688 2.713-9.508 5.485 1.143 2.499 2.344 3.63 4.26 5.795 9.068 9.198 31.76 8.746 35.83-5.176.165-.478 1.261-3.666.38-8.581zM69.462 58.943H57.753l-.048 30.272c0 6.438.333 12.34-.714 14.149-1.713 3.558-6.152 3.117-8.175 2.427-2.059-1.012-3.106-2.451-4.319-4.485-.333-.584-.583-1.036-.667-1.071l-9.52 5.83c1.583 3.249 3.915 6.069 6.902 7.901 4.462 2.678 10.459 3.499 16.731 2.059 4.082-1.189 7.604-3.652 9.448-7.401 2.666-4.915 2.094-10.864 2.07-17.444.06-10.735.001-21.468.001-32.237z"></path>
  </symbol>
  <symbol viewBox="0 0 128 128" id="mysql">
    <path fill="#00618A" d="M117.688 98.242c-6.973-.191-12.297.461-16.852 2.379-1.293.547-3.355.559-3.566 2.18.711.746.82 1.859 1.387 2.777 1.086 1.754 2.922 4.113 4.559 5.352 1.789 1.348 3.633 2.793 5.551 3.961 3.414 2.082 7.223 3.27 10.504 5.352 1.938 1.23 3.859 2.777 5.75 4.164.934.684 1.563 1.75 2.773 2.18v-.195c-.637-.812-.801-1.93-1.387-2.777l-2.578-2.578c-2.52-3.344-5.719-6.281-9.117-8.719-2.711-1.949-8.781-4.578-9.91-7.73l-.199-.199c1.922-.219 4.172-.914 5.949-1.391 2.98-.797 5.645-.59 8.719-1.387l4.164-1.187v-.793c-1.555-1.594-2.664-3.707-4.359-5.152-4.441-3.781-9.285-7.555-14.273-10.703-2.766-1.746-6.184-2.883-9.117-4.363-.988-.496-2.719-.758-3.371-1.586-1.539-1.961-2.379-4.449-3.566-6.738-2.488-4.793-4.93-10.023-7.137-15.066-1.504-3.437-2.484-6.828-4.359-9.91-9-14.797-18.687-23.73-33.695-32.508-3.195-1.867-7.039-2.605-11.102-3.57l-6.543-.395c-1.332-.555-2.715-2.184-3.965-2.977C16.977 3.52 4.223-3.312.539 5.672-1.785 11.34 4.016 16.871 6.09 19.746c1.457 2.012 3.32 4.273 4.359 6.539.688 1.492.805 2.984 1.391 4.559 1.438 3.883 2.695 8.109 4.559 11.695.941 1.816 1.98 3.727 3.172 5.352.727.996 1.98 1.438 2.18 2.973-1.227 1.715-1.297 4.375-1.984 6.543-3.098 9.77-1.926 21.91 2.578 29.137 1.383 2.223 4.641 6.98 9.117 5.156 3.918-1.598 3.043-6.539 4.164-10.902.254-.988.098-1.715.594-2.379v.199l3.57 7.133c2.641 4.254 7.324 8.699 11.297 11.699 2.059 1.555 3.68 4.242 6.344 5.152v-.199h-.199c-.516-.805-1.324-1.137-1.98-1.781-1.551-1.523-3.277-3.414-4.559-5.156-3.613-4.902-6.805-10.27-9.711-15.855-1.391-2.668-2.598-5.609-3.77-8.324-.453-1.047-.445-2.633-1.387-3.172-1.281 1.988-3.172 3.598-4.164 5.945-1.582 3.754-1.789 8.336-2.375 13.082-.348.125-.195.039-.398.199-2.762-.668-3.73-3.508-4.758-5.949-2.594-6.164-3.078-16.09-.793-23.191.59-1.836 3.262-7.617 2.18-9.316-.516-1.691-2.219-2.672-3.172-3.965-1.18-1.598-2.355-3.703-3.172-5.551-2.125-4.805-3.113-10.203-5.352-15.062-1.07-2.324-2.875-4.676-4.359-6.738-1.645-2.289-3.484-3.977-4.758-6.742-.453-.984-1.066-2.559-.398-3.566.215-.684.516-.969 1.191-1.191 1.148-.887 4.352.297 5.547.793 3.18 1.32 5.832 2.578 8.527 4.363 1.289.855 2.598 2.512 4.16 2.973h1.785c2.789.641 5.914.195 8.523.988 4.609 1.402 8.738 3.582 12.488 5.949 11.422 7.215 20.766 17.48 27.156 29.734 1.027 1.973 1.473 3.852 2.379 5.945 1.824 4.219 4.125 8.559 5.941 12.688 1.816 4.113 3.582 8.27 6.148 11.695 1.348 1.801 6.551 2.766 8.918 3.766 1.66.699 4.379 1.43 5.949 2.379 3 1.809 5.906 3.965 8.723 5.945 1.402.992 5.73 3.168 5.945 4.957zm-88.605-75.52c-1.453-.027-2.48.156-3.566.395v.199h.195c.695 1.422 1.918 2.34 2.777 3.566l1.98 4.164.199-.195c1.227-.867 1.789-2.25 1.781-4.363-.492-.52-.562-1.164-.992-1.785-.562-.824-1.66-1.289-2.375-1.98zm0 0"></path>
  </symbol>
  <symbol viewBox="0 0 128 128" id="node">
    <path fill="#5fa04e" d="M63.999 0a5.617 5.617 0 0 0-2.789.744L11.445 29.646 28.852 61.58 64.592.053A8.177 8.177 0 0 0 64.003 0Zm2.316.605v.002l35.194 60.577 16.545-30.449a5.483 5.483 0 0 0-1.028-.817L91.38 15.024 66.7.754h-.007c-.12-.061-.252-.099-.378-.15Zm-1.024.248L29.417 62.616l35.579 65.278c.1-.02.198-.023.297-.05l35.653-65.624ZM10.586 30.176c-1.502 1.031-2.35 2.752-2.35 4.595v58.478c0 .93.254 1.838.684 2.645l19.34-33.293Zm108.161 1.4-16.643 30.629 17.66 30.398V34.77c0-1.15-.382-2.265-1.017-3.195zm-17.204 31.667-34.808 64.062.055-.028 50.243-29.183.004-.002c1.402-.793 2.3-2.155 2.604-3.693zm-72.718.394L9.545 96.832c.406.5.885.936 1.43 1.266l.001.004 49.702 28.866.53.305.006.002h.002c.257.151.528.266.798.372.144.054.288.104.433.146.125.037.251.062.376.089.242.051.483.088.727.108.118.01.237.01.355.01z"></path>
  </symbol>
  <symbol viewBox="0 0 128 128" id="git">
    <path fill="#F34F29" d="M124.742 58.378L69.625 3.264c-3.172-3.174-8.32-3.174-11.497 0L46.685 14.71l14.518 14.518c3.375-1.139 7.243-.375 9.932 2.314a9.66 9.66 0 012.293 9.993L87.42 55.529c3.385-1.167 7.292-.413 9.994 2.295 3.78 3.777 3.78 9.9 0 13.679a9.673 9.673 0 01-13.683 0 9.677 9.677 0 01-2.105-10.521L68.578 47.933l-.002 34.341a9.708 9.708 0 012.559 1.828c3.779 3.777 3.779 9.898 0 13.683-3.779 3.777-9.904 3.777-13.679 0-3.778-3.784-4.088-9.905-.311-13.683.934-.933 1.855-1.638 2.855-2.11V47.333c-1-.472-1.92-1.172-2.856-2.111-2.861-2.86-3.396-7.06-1.928-10.576L40.983 20.333 3.229 58.123c-3.175 3.177-3.155 8.325.02 11.5l55.126 55.114c3.173 3.174 8.325 3.174 11.503 0l54.86-54.858c3.175-3.176 3.178-8.327.004-11.501z"></path>
  </symbol>
  <symbol viewBox="0 0 128 128" id="python">
    <path fill="#FFD845" d="M49.33 62h29.159C86.606 62 93 55.132 93 46.981V19.183c0-7.912-6.632-13.856-14.555-15.176-5.014-.835-10.195-1.215-15.187-1.191-4.99.023-9.612.448-13.805 1.191C37.098 6.188 35 10.758 35 19.183V30h29v4H23.776c-8.484 0-15.914 5.108-18.237 14.811-2.681 11.12-2.8 17.919 0 29.53C7.614 86.983 12.569 93 21.054 93H31V79.952C31 70.315 39.428 62 49.33 62zm-1.838-39.11c-3.026 0-5.478-2.479-5.478-5.545 0-3.079 2.451-5.581 5.478-5.581 3.015 0 5.479 2.502 5.479 5.581-.001 3.066-2.465 5.545-5.479 5.545zm74.789 25.921C120.183 40.363 116.178 34 107.682 34H97v12.981C97 57.031 88.206 65 78.489 65H49.33C41.342 65 35 72.326 35 80.326v27.8c0 7.91 6.745 12.564 14.462 14.834 9.242 2.717 17.994 3.208 29.051 0C85.862 120.831 93 116.549 93 108.126V97H64v-4h43.682c8.484 0 11.647-5.776 14.599-14.66 3.047-9.145 2.916-17.799 0-29.529zm-41.955 55.606c3.027 0 5.479 2.479 5.479 5.547 0 3.076-2.451 5.579-5.479 5.579-3.015 0-5.478-2.502-5.478-5.579 0-3.068 2.463-5.547 5.478-5.547z"></path>
  </symbol>
  <symbol viewBox="0 0 128 128" id="java">
    <path fill="#0074BD" d="M47.617 98.12s-4.767 2.774 3.397 3.71c9.892 1.13 14.947.968 25.845-1.092 0 0 2.871 1.795 6.873 3.351-24.439 10.47-55.308-.607-36.115-5.969zm-2.988-13.665s-5.348 3.959 2.823 4.805c10.567 1.091 18.91 1.18 33.354-1.6 0 0 1.993 2.025 5.132 3.131-29.542 8.64-62.446.68-41.309-6.336z"></path>
    <path fill="#EA2D2E" d="M69.802 61.271c6.025 6.935-1.58 13.17-1.58 13.17s15.289-7.891 8.269-17.777c-6.559-9.215-11.587-13.792 15.635-29.58 0 .001-42.731 10.67-22.324 34.187z"></path>
    <path fill="#0074BD" d="M102.123 108.229s3.529 2.91-3.888 5.159c-14.102 4.272-58.706 5.56-71.094.171-4.451-1.938 3.899-4.625 6.526-5.192 2.739-.593 4.303-.485 4.303-.485-4.953-3.487-32.013 6.85-13.743 9.815 49.821 8.076 90.817-3.637 77.896-9.468zM49.912 70.294s-22.686 5.389-8.033 7.348c6.188.828 18.518.638 30.011-.326 9.39-.789 18.813-2.474 18.813-2.474s-3.308 1.419-5.704 3.053c-23.042 6.061-67.544 3.238-54.731-2.958 10.832-5.239 19.644-4.643 19.644-4.643zm40.697 22.747c23.421-12.167 12.591-23.86 5.032-22.285-1.848.385-2.677.72-2.677.72s.688-1.079 2-1.543c14.953-5.255 26.451 15.503-4.823 23.725 0-.002.359-.327.468-.617z"></path>
    <path fill="#EA2D2E" d="M76.491 1.587S89.459 14.563 64.188 34.51c-20.266 16.006-4.621 25.13-.007 35.559-11.831-10.673-20.509-20.07-14.688-28.815C58.041 28.42 81.722 22.195 76.491 1.587z"></path>
    <path fill="#0074BD" d="M52.214 126.021c22.476 1.437 57-.8 57.817-11.436 0 0-1.571 4.032-18.577 7.231-19.186 3.612-42.854 3.191-56.887.874 0 .001 2.875 2.381 17.647 3.331z"></path>
  </symbol>
  <symbol viewBox="0 0 128 128" id="jquery">
    <path fill="#0868AC" d="M9.625 32.181C-1.404 48.032-.031 68.657 8.394 85.501c.2.404.41.801.617 1.198l.394.759.246.437.439.786c.262.461.53.92.804 1.379l.459.756c.304.491.615.976.933 1.46l.398.614c.439.655.888 1.309 1.352 1.951l.039.05.228.308c.401.553.814 1.099 1.232 1.639l.464.59c.373.469.752.935 1.138 1.399l.435.52a75.27 75.27 0 001.586 1.812l.033.033.061.068a80.44 80.44 0 001.612 1.699l.517.521c.423.426.853.845 1.287 1.262l.527.5c.58.547 1.166 1.083 1.764 1.607l.028.022.307.262c.527.456 1.063.909 1.603 1.353l.664.529c.441.354.887.702 1.336 1.044l.714.543c.496.365.995.724 1.499 1.075l.546.387.15.107c.478.329.967.646 1.456.963l.63.42c.75.474 1.51.943 2.279 1.396l.63.355c.565.326 1.134.646 1.71.959.312.168.632.327.946.488.407.213.811.429 1.225.636l.283.137.501.242c.641.306 1.287.607 1.94.897l.41.184a66.92 66.92 0 002.263.941l.551.217c.704.271 1.418.539 2.135.791l.268.093c.787.275 1.581.53 2.381.779l.575.172c.814.245 1.619.538 2.458.693 53.339 9.727 68.833-32.053 68.833-32.053-13.013 16.953-36.111 21.425-57.996 16.446-.829-.187-1.633-.446-2.442-.685l-.609-.185a72.498 72.498 0 01-2.352-.765l-.323-.117a72.245 72.245 0 01-2.074-.769l-.582-.229c-.752-.297-1.5-.607-2.239-.931l-.447-.198a92.857 92.857 0 01-1.889-.879l-.546-.262c-.491-.239-.977-.493-1.461-.743-.324-.171-.654-.332-.975-.51a58.591 58.591 0 01-1.751-.982l-.591-.33a81.221 81.221 0 01-2.28-1.397l-.615-.41a59.283 59.283 0 01-1.623-1.079l-.522-.367a89.287 89.287 0 01-1.534-1.109l-.679-.514a64.473 64.473 0 01-1.384-1.082l-.617-.495a82.693 82.693 0 01-1.724-1.453l-.189-.159a83.466 83.466 0 01-1.812-1.647l-.511-.491c-.441-.42-.875-.843-1.302-1.277l-.51-.509a70.541 70.541 0 01-1.598-1.69l-.079-.084a67.39 67.39 0 01-1.621-1.844l-.424-.504a70.602 70.602 0 01-1.167-1.442l-.427-.532a78.406 78.406 0 01-1.347-1.794c-12.15-16.574-16.516-39.432-6.805-58.204m25.629-2.434c-7.977 11.478-7.543 26.844-1.321 38.983a50.581 50.581 0 003.528 5.889c1.195 1.713 2.52 3.751 4.106 5.127a48.111 48.111 0 001.79 1.858l.472.465a51.69 51.69 0 001.828 1.698l.074.064.018.018a55.268 55.268 0 002.135 1.767l.485.378a54.08 54.08 0 002.233 1.631l.065.049c.336.232.678.448 1.019.672l.483.319c.544.349 1.095.689 1.655 1.015l.235.136c.483.278.972.552 1.463.818l.521.271c.339.177.678.358 1.023.53l.155.07c.703.346 1.412.68 2.136.995l.472.194c.579.246 1.164.486 1.75.71l.75.275c.533.198 1.068.378 1.607.559l.727.233c.767.238 1.525.539 2.324.672 41.183 6.823 50.691-24.886 50.691-24.886-8.57 12.343-25.168 18.233-42.879 13.635a50.376 50.376 0 01-2.333-.674l-.701-.227a45.423 45.423 0 01-1.631-.562l-.736-.274a56.418 56.418 0 01-1.756-.708l-.473-.2a47.728 47.728 0 01-2.148-.999c-.363-.177-.72-.364-1.078-.548l-.622-.32a44.502 44.502 0 01-1.363-.77l-.326-.185a47.844 47.844 0 01-1.651-1.008l-.498-.332a61.759 61.759 0 01-1.069-.707 57.456 57.456 0 01-2.226-1.628l-.501-.395c-7.752-6.12-13.898-14.486-16.819-23.971-3.062-9.836-2.402-20.878 2.903-29.84m22.278-.775c-4.702 6.92-5.164 15.514-1.901 23.156 3.441 8.113 10.491 14.476 18.72 17.495.339.125.679.237 1.022.354l.451.143c.485.152.966.329 1.467.424 22.74 4.394 28.908-11.669 30.549-14.034-5.402 7.779-14.482 9.646-25.623 6.942-.88-.213-1.847-.531-2.695-.832a33.242 33.242 0 01-3.201-1.329 33.215 33.215 0 01-5.612-3.424c-9.969-7.565-16.162-21.994-9.657-33.745"></path>
  </symbol>
  <symbol viewBox="0 0 128 128" id="react">
    <g fill="#61DAFB">
      <circle cx="64" cy="64" r="11.4"></circle>
      <path d="M107.3 45.2c-2.2-.8-4.5-1.6-6.9-2.3.6-2.4 1.1-4.8 1.5-7.1 2.1-13.2-.2-22.5-6.6-26.1-1.9-1.1-4-1.6-6.4-1.6-7 0-15.9 5.2-24.9 13.9-9-8.7-17.9-13.9-24.9-13.9-2.4 0-4.5.5-6.4 1.6-6.4 3.7-8.7 13-6.6 26.1.4 2.3.9 4.7 1.5 7.1-2.4.7-4.7 1.4-6.9 2.3C8.2 50 1.4 56.6 1.4 64s6.9 14 19.3 18.8c2.2.8 4.5 1.6 6.9 2.3-.6 2.4-1.1 4.8-1.5 7.1-2.1 13.2.2 22.5 6.6 26.1 1.9 1.1 4 1.6 6.4 1.6 7.1 0 16-5.2 24.9-13.9 9 8.7 17.9 13.9 24.9 13.9 2.4 0 4.5-.5 6.4-1.6 6.4-3.7 8.7-13 6.6-26.1-.4-2.3-.9-4.7-1.5-7.1 2.4-.7 4.7-1.4 6.9-2.3 12.5-4.8 19.3-11.4 19.3-18.8s-6.8-14-19.3-18.8zM92.5 14.7c4.1 2.4 5.5 9.8 3.8 20.3-.3 2.1-.8 4.3-1.4 6.6-5.2-1.2-10.7-2-16.5-2.5-3.4-4.8-6.9-9.1-10.4-13 7.4-7.3 14.9-12.3 21-12.3 1.3 0 2.5.3 3.5.9zM81.3 74c-1.8 3.2-3.9 6.4-6.1 9.6-3.7.3-7.4.4-11.2.4-3.9 0-7.6-.1-11.2-.4-2.2-3.2-4.2-6.4-6-9.6-1.9-3.3-3.7-6.7-5.3-10 1.6-3.3 3.4-6.7 5.3-10 1.8-3.2 3.9-6.4 6.1-9.6 3.7-.3 7.4-.4 11.2-.4 3.9 0 7.6.1 11.2.4 2.2 3.2 4.2 6.4 6 9.6 1.9 3.3 3.7 6.7 5.3 10-1.7 3.3-3.4 6.6-5.3 10zm8.3-3.3c1.5 3.5 2.7 6.9 3.8 10.3-3.4.8-7 1.4-10.8 1.9 1.2-1.9 2.5-3.9 3.6-6 1.2-2.1 2.3-4.2 3.4-6.2zM64 97.8c-2.4-2.6-4.7-5.4-6.9-8.3 2.3.1 4.6.2 6.9.2 2.3 0 4.6-.1 6.9-.2-2.2 2.9-4.5 5.7-6.9 8.3zm-18.6-15c-3.8-.5-7.4-1.1-10.8-1.9 1.1-3.3 2.3-6.8 3.8-10.3 1.1 2 2.2 4.1 3.4 6.1 1.2 2.2 2.4 4.1 3.6 6.1zm-7-25.5c-1.5-3.5-2.7-6.9-3.8-10.3 3.4-.8 7-1.4 10.8-1.9-1.2 1.9-2.5 3.9-3.6 6-1.2 2.1-2.3 4.2-3.4 6.2zM64 30.2c2.4 2.6 4.7 5.4 6.9 8.3-2.3-.1-4.6-.2-6.9-.2-2.3 0-4.6.1-6.9.2 2.2-2.9 4.5-5.7 6.9-8.3zm22.2 21l-3.6-6c3.8.5 7.4 1.1 10.8 1.9-1.1 3.3-2.3 6.8-3.8 10.3-1.1-2.1-2.2-4.2-3.4-6.2zM31.7 35c-1.7-10.5-.3-17.9 3.8-20.3 1-.6 2.2-.9 3.5-.9 6 0 13.5 4.9 21 12.3-3.5 3.8-7 8.2-10.4 13-5.8.5-11.3 1.4-16.5 2.5-.6-2.3-1-4.5-1.4-6.6zM7 64c0-4.7 5.7-9.7 15.7-13.4 2-.8 4.2-1.5 6.4-2.1 1.6 5 3.6 10.3 6 15.6-2.4 5.3-4.5 10.5-6 15.5C15.3 75.6 7 69.6 7 64zm28.5 49.3c-4.1-2.4-5.5-9.8-3.8-20.3.3-2.1.8-4.3 1.4-6.6 5.2 1.2 10.7 2 16.5 2.5 3.4 4.8 6.9 9.1 10.4 13-7.4 7.3-14.9 12.3-21 12.3-1.3 0-2.5-.3-3.5-.9zM96.3 93c1.7 10.5.3 17.9-3.8 20.3-1 .6-2.2.9-3.5.9-6 0-13.5-4.9-21-12.3 3.5-3.8 7-8.2 10.4-13 5.8-.5 11.3-1.4 16.5-2.5.6 2.3 1 4.5 1.4 6.6zm9-15.6c-2 .8-4.2 1.5-6.4 2.1-1.6-5-3.6-10.3-6-15.6 2.4-5.3 4.5-10.5 6-15.5 13.8 4 22.1 10 22.1 15.6 0 4.7-5.8 9.7-15.7 13.4z"></path>
    </g>
  </symbol>
</svg>